<mxfile host="app.diagrams.net" modified="2024-05-31T08:14:47.935Z" agent="Mozilla/5.0 (Windows NT 10.0; Win64; x64) AppleWebKit/537.36 (KHTML, like Gecko) Chrome/126.0.0.0 Safari/537.36 Edg/126.0.0.0" version="24.4.10" etag="MG9RlpadaNlvt6C67HHw" type="github">
  <diagram name="第 1 页" id="nE-fRyDv5s7RX3d8USJu">
    <mxGraphModel>
      <root>
        <mxCell id="0" />
        <mxCell id="1" parent="0" />
      </root>
    </mxGraphModel>
  </diagram>
</mxfile>
